<svg xmlns="http://www.w3.org/2000/svg" width="18.086" height="21.808" viewBox="0 0 18.086 21.808"><defs><style>.a{fill:#f6f6f6;}</style></defs><path class="a" d="M5.787,21.808c-1.551-.015-2.737-1.589-3.625-2.99C-.321,14.9-.581,10.3.951,7.86a5.465,5.465,0,0,1,4.42-2.753c1.644,0,2.677.934,4.036.934,1.319,0,2.121-.935,4.022-.935a5.31,5.31,0,0,1,4.043,2.211A4.866,4.866,0,0,0,18.086,16a15.806,15.806,0,0,1-1.367,2.645c-.888,1.4-2.139,3.145-3.69,3.16a3.375,3.375,0,0,1-1.619-.46,4.153,4.153,0,0,0-1.984-.46c-1.856.011-2.255.923-3.609.923ZM8.742,5.247A4.542,4.542,0,0,1,9.794,1.794,4.935,4.935,0,0,1,13.011,0a4.894,4.894,0,0,1-1.024,3.54A4.2,4.2,0,0,1,8.834,5.249Z"/></svg>