<svg xmlns="http://www.w3.org/2000/svg" width="14.242" height="12.671" viewBox="0 0 14.242 12.671"><defs><style>.a{fill:#03f87e;}</style></defs><path class="a" d="M196.546,85.211A.835.835,0,0,1,196,85c-.575-.5-1.13-.976-1.619-1.393l0,0a30.132,30.132,0,0,1-3.536-3.319,5.3,5.3,0,0,1-1.412-3.47,4.452,4.452,0,0,1,1.13-3.04,3.83,3.83,0,0,1,2.849-1.24,3.582,3.582,0,0,1,2.238.773,4.573,4.573,0,0,1,.9.944,4.574,4.574,0,0,1,.9-.944,3.582,3.582,0,0,1,2.238-.773,3.83,3.83,0,0,1,2.849,1.24,4.452,4.452,0,0,1,1.13,3.04,5.3,5.3,0,0,1-1.413,3.47,30.126,30.126,0,0,1-3.536,3.319c-.491.418-1.046.891-1.623,1.4A.836.836,0,0,1,196.546,85.211Z" transform="translate(-189.425 -72.54)"/></svg>