<svg xmlns="http://www.w3.org/2000/svg" width="24.017" height="24.017" viewBox="0 0 24.017 24.017"><defs><style>.a{fill:#fff;}</style></defs><g transform="translate(0)"><g transform="translate(0)"><path class="a" d="M23.663,17.164c-2.825-2.825-3.25-4.244-3.25-8.758a8.4,8.4,0,1,0-16.809,0,14.2,14.2,0,0,1-.4,4.458,10.3,10.3,0,0,1-2.851,4.3,1.2,1.2,0,0,0,.849,2.05H7.867l-.061.6a4.2,4.2,0,1,0,8.4,0l-.061-.6h6.664A1.2,1.2,0,0,0,23.663,17.164ZM12.009,22.816a3,3,0,0,1-3-3l.061-.6H14.95l.061.6A3,3,0,0,1,12.009,22.816ZM1.2,18.013c3.6-3.6,3.6-6,3.6-9.607a7.2,7.2,0,1,1,14.408,0c0,3.6,0,6,3.6,9.607Z" transform="translate(0 0)"/></g></g></svg>