<svg xmlns="http://www.w3.org/2000/svg" width="24.017" height="24.017" viewBox="0 0 24.017 24.017"><defs><style>.a{fill:#fff;}</style></defs><path class="a" d="M22.451,9.4H20.5a8.847,8.847,0,0,0-.639-1.544l1.381-1.381a1.57,1.57,0,0,0,0-2.216L19.76,2.778a1.606,1.606,0,0,0-2.216,0L16.164,4.16a8.845,8.845,0,0,0-1.544-.639V1.566A1.568,1.568,0,0,0,13.053,0H10.964A1.568,1.568,0,0,0,9.4,1.566V3.521a8.893,8.893,0,0,0-1.544.639L6.472,2.779a1.569,1.569,0,0,0-2.216,0L2.778,4.257a1.569,1.569,0,0,0,0,2.216L4.159,7.854A8.827,8.827,0,0,0,3.52,9.4H1.566A1.568,1.568,0,0,0,0,10.965v2.089A1.568,1.568,0,0,0,1.566,14.62H3.521a8.893,8.893,0,0,0,.639,1.544L2.779,17.545a1.569,1.569,0,0,0,0,2.216l1.478,1.478a1.569,1.569,0,0,0,2.216,0l1.381-1.381A8.827,8.827,0,0,0,9.4,20.5v1.954a1.568,1.568,0,0,0,1.566,1.566h2.089a1.568,1.568,0,0,0,1.566-1.566V20.5a8.879,8.879,0,0,0,1.545-.639l1.381,1.382a1.607,1.607,0,0,0,2.216,0l1.478-1.478a1.569,1.569,0,0,0,0-2.216l-1.381-1.381A8.845,8.845,0,0,0,20.5,14.62h1.955a1.568,1.568,0,0,0,1.566-1.566V10.964A1.568,1.568,0,0,0,22.451,9.4Zm.522,3.655a.523.523,0,0,1-.522.522H20.1a.522.522,0,0,0-.505.392,7.85,7.85,0,0,1-.838,2.021.523.523,0,0,0,.081.634l1.66,1.661a.524.524,0,0,1,0,.739L19.022,20.5a.538.538,0,0,1-.74,0l-1.66-1.661a.523.523,0,0,0-.635-.08,7.819,7.819,0,0,1-2.021.837.521.521,0,0,0-.391.5v2.35a.523.523,0,0,1-.522.522H10.964a.523.523,0,0,1-.522-.522V20.1a.522.522,0,0,0-.392-.505,7.828,7.828,0,0,1-2.021-.837.524.524,0,0,0-.635.08L5.734,20.5a.523.523,0,0,1-.739,0L3.517,19.022a.522.522,0,0,1,0-.739l1.661-1.661a.522.522,0,0,0,.08-.634,7.84,7.84,0,0,1-.837-2.021.52.52,0,0,0-.5-.392H1.566a.523.523,0,0,1-.522-.522V10.964a.523.523,0,0,1,.522-.522h2.35a.522.522,0,0,0,.505-.392,7.828,7.828,0,0,1,.837-2.021.522.522,0,0,0-.08-.634L3.517,5.734a.523.523,0,0,1,0-.739L5,3.517a.523.523,0,0,1,.739,0L7.4,5.178a.521.521,0,0,0,.634.08,7.84,7.84,0,0,1,2.021-.837.522.522,0,0,0,.392-.505V1.566a.523.523,0,0,1,.522-.522h2.089a.522.522,0,0,1,.522.522v2.35a.522.522,0,0,0,.392.505,7.819,7.819,0,0,1,2.021.837.522.522,0,0,0,.635-.08l1.661-1.661a.536.536,0,0,1,.739,0L20.5,5a.524.524,0,0,1,0,.739L18.839,7.4a.523.523,0,0,0-.08.634,7.842,7.842,0,0,1,.838,2.021.52.52,0,0,0,.5.392h2.35a.523.523,0,0,1,.522.522Z"/><path class="a" d="M17.354,12.562a4.792,4.792,0,1,0,4.792,4.792A4.8,4.8,0,0,0,17.354,12.562Zm0,8.519a3.727,3.727,0,1,1,3.727-3.727A3.731,3.731,0,0,1,17.354,21.081Z" transform="translate(-5.345 -5.345)"/></svg>