<svg xmlns="http://www.w3.org/2000/svg" width="24.017" height="24.017" viewBox="0 0 24.017 24.017"><defs><style>.a{fill:#402465;}.b{fill:#e6e6e6;}</style></defs><path class="a" d="M12.009,0A12.009,12.009,0,1,1,0,12.009,12.009,12.009,0,0,1,12.009,0Z"/><path class="b" d="M11.015,21.365,7.631,23.248a3.685,3.685,0,0,0-.531.4,11.228,11.228,0,0,0,7.3,2.691,11.5,11.5,0,0,0,7.233-2.624l-.6-.4L17.451,21.5a1.446,1.446,0,0,1-.73-1.278V18.808a2.848,2.848,0,0,0,.332-.471,9.152,9.152,0,0,0,1.128-2.287,1.15,1.15,0,0,0,.8-1.076V13.426a1.091,1.091,0,0,0-.4-.875v-2.22S19.044,6.9,14.4,6.9c-4.578,0-4.18,3.431-4.18,3.431v2.22a1.342,1.342,0,0,0-.4.875v1.547a1.077,1.077,0,0,0,.531.942,7.915,7.915,0,0,0,1.393,2.893v1.413a1.807,1.807,0,0,1-.73,1.144Zm0,0" transform="translate(-2.323 -2.46)"/></svg>