<svg xmlns="http://www.w3.org/2000/svg" width="18.958" height="23.282" viewBox="0 0 18.958 23.282"><defs><style>.a{fill:#f6f6f6;}</style></defs><path class="a" d="M6.066,23.282c-1.626-.016-2.869-1.7-3.8-3.192C-.337,15.908-.609,11,1,8.391A5.716,5.716,0,0,1,5.63,5.453c1.723,0,2.806,1,4.231,1,1.382,0,2.224-1,4.216-1a5.539,5.539,0,0,1,4.238,2.361,5.238,5.238,0,0,0,.644,9.269,16.99,16.99,0,0,1-1.433,2.824c-.931,1.5-2.242,3.357-3.868,3.374a3.49,3.49,0,0,1-1.7-.491A4.29,4.29,0,0,0,9.881,22.3c-1.946.012-2.364.985-3.783.985ZM9.164,5.6a4.91,4.91,0,0,1,1.1-3.687A5.149,5.149,0,0,1,13.639,0a5.292,5.292,0,0,1-1.074,3.78A4.376,4.376,0,0,1,9.26,5.6Z"/></svg>