<svg xmlns="http://www.w3.org/2000/svg" width="117.558" height="26.814" viewBox="0 0 117.558 26.814"><defs><style>.a{fill:#03f87e;}.b{fill:#6804bf;}.c{fill:#ff5082;}.d{fill:#fff;}</style></defs><g transform="translate(-75.298 -89.461)"><g transform="translate(75.298 89.461)"><path class="a" d="M88.575,92.453a11.4,11.4,0,0,0-3.693-.853,11.851,11.851,0,0,0-3.736.439,11.046,11.046,0,0,0-3.4,1.524,5.182,5.182,0,0,0-1.293,1.244,2.167,2.167,0,0,0-.42,1.558,3.022,3.022,0,0,0,.774,1.484c.1.111.2.219.308.325l.166.159c.056.053.11.093.165.141s.106.094.165.135l.178.121a3.724,3.724,0,0,0,.374.223,9.008,9.008,0,0,0,3.5.848,23.064,23.064,0,0,0,3.732-.076q.934-.088,1.864-.23c.309-.048.619-.1.926-.154l.46-.087.228-.046.113-.024.055-.012.028-.006.028-.005.045-.007c.03,0,.059-.006.089-.008l-.146.016a77.346,77.346,0,0,0,22.676-9.522,1.181,1.181,0,0,1,1.25,2l-.037.022-.005,0a79.2,79.2,0,0,1-23.593,8.81l-.145.016a.505.505,0,0,0,.06,0l.03,0,.013,0-.031.006-.062.011-.122.021-.243.039-.484.071c-.322.046-.645.084-.968.121q-.968.106-1.942.16a24.171,24.171,0,0,1-3.915-.08,13.429,13.429,0,0,1-1.955-.355,7.632,7.632,0,0,1-1.885-.756,4.58,4.58,0,0,1-.437-.285l-.21-.157c-.069-.054-.132-.117-.2-.176s-.134-.12-.191-.178l-.172-.179c-.115-.122-.226-.251-.335-.383a3.767,3.767,0,0,1-.879-1.91,2.592,2.592,0,0,1,.117-1.092,3.3,3.3,0,0,1,.5-.937,5.772,5.772,0,0,1,1.5-1.34,11.526,11.526,0,0,1,3.616-1.454,12.077,12.077,0,0,1,3.855-.258,11.018,11.018,0,0,1,1.891.372A11.546,11.546,0,0,1,88.575,92.453Z" transform="translate(-75.298 -89.461)"/><path class="b" d="M85.714,124.751a18.642,18.642,0,0,1-4.642-2.3c-.567-2-1.377-4.914-2.073-7.432a12.639,12.639,0,0,0,6.243,1.752.282.282,0,0,1,.264.26l.582,7.426A.284.284,0,0,1,85.714,124.751Z" transform="translate(-77.223 -102.759)"/><path class="a" d="M107.652,116.323l-1.695,10.038a.287.287,0,0,1-.285.237,41.734,41.734,0,0,1-7.646-.667.283.283,0,0,1-.227-.273l-.17-8.044a.284.284,0,0,1,.276-.288,45.5,45.5,0,0,0,6.951-.782c.768-.158,1.583-.338,2.449-.544A.285.285,0,0,1,107.652,116.323Z" transform="translate(-86.915 -103.263)"/><path class="b" d="M124.177,120.282c-1.6.1-3.065.172-4.425.206a.283.283,0,0,1-.281-.352l2.723-10.99a.28.28,0,0,1,.2-.2,103.324,103.324,0,0,0,12.959-4.652" transform="translate(-98.273 -97.176)"/><g transform="translate(0.045 6.817)"><path class="a" d="M97.835,123.666c-.65,0-1.3-.011-1.948-.035-.786-.029-2.357-.105-4.04-.3-8.112-.93-12.114-3.783-12.416-4.816-.124-.425-.311-1.08-.539-1.884L76.819,109.2c-.779-2.813-1.416-5.132-1.416-5.132a.316.316,0,0,1,.609-.167s.636,2.318,1.415,5.131l2.072,7.431c.227.8.413,1.454.537,1.877.219.749,4.211,3.486,11.882,4.365,1.724.2,3.365.272,3.99.295.965.035,1.943.043,2.906.025a.316.316,0,1,1,.012.631C98.5,123.663,98.166,123.666,97.835,123.666Z" transform="translate(-75.391 -103.669)"/></g><path class="a" d="M85.07,100.928c-4.243,0-7.567-1.659-7.567-3.776s3.323-3.776,7.567-3.776,7.567,1.659,7.567,3.776S89.313,100.928,85.07,100.928Zm0-6.921c-3.759,0-6.935,1.44-6.935,3.145s3.176,3.145,6.935,3.145S92,98.856,92,97.151,88.829,94.006,85.07,94.006Z" transform="translate(-76.445 -91.497)"/><ellipse class="c" cx="5.532" cy="2.519" rx="5.532" ry="2.519" transform="translate(3.165 2.366)"/></g><g transform="translate(112.492 98.17)"><path class="d" d="M156.128,121.549a5.805,5.805,0,0,1-2.447-2.2,6.113,6.113,0,0,1-.86-3.236,8.574,8.574,0,0,1,1.123-4.369,7.89,7.89,0,0,1,3.135-3.034,9.448,9.448,0,0,1,4.581-1.092,8.3,8.3,0,0,1,3.732.789,5.813,5.813,0,0,1,2.447,2.205,6.112,6.112,0,0,1,.86,3.236,8.568,8.568,0,0,1-1.123,4.368,7.9,7.9,0,0,1-3.135,3.034,9.449,9.449,0,0,1-4.581,1.092A8.293,8.293,0,0,1,156.128,121.549Zm6.422-3.2a4.419,4.419,0,0,0,1.557-1.79,5.587,5.587,0,0,0,.546-2.478,3.062,3.062,0,0,0-.88-2.3,3.367,3.367,0,0,0-2.457-.86,4.162,4.162,0,0,0-2.346.667,4.415,4.415,0,0,0-1.557,1.79,5.588,5.588,0,0,0-.546,2.478,3.063,3.063,0,0,0,.879,2.3,3.368,3.368,0,0,0,2.458.86A4.163,4.163,0,0,0,162.55,118.353Z" transform="translate(-152.821 -107.613)"/><path class="d" d="M189.546,111.379H185.2l.647-3.176h12.682l-.647,3.176h-4.329l-2.2,10.983h-4Z" transform="translate(-169.664 -107.92)"/><path class="d" d="M216.737,111.379h-4.348l.647-3.176h12.681l-.647,3.176h-4.329l-2.2,10.983h-4Z" transform="translate(-183.81 -107.92)"/><g transform="translate(38.365 1.462)"><path class="d" d="M243.028,118.14a3.882,3.882,0,0,1,1.478,1.5,4.538,4.538,0,0,1,.56,2.291,5.708,5.708,0,0,1-.691,2.808A5.189,5.189,0,0,1,242.5,126.7a4.876,4.876,0,0,1-2.58.717,3.193,3.193,0,0,1-2.9-1.294l-.91,4.531h-3.323l2.571-12.874h3.149l-.192.892a3.9,3.9,0,0,1,2.746-1.049A3.959,3.959,0,0,1,243.028,118.14Zm-1.951,5.869a2.828,2.828,0,0,0,.63-1.907,1.815,1.815,0,0,0-.481-1.329,1.764,1.764,0,0,0-1.32-.49,2.043,2.043,0,0,0-1.627.735,2.854,2.854,0,0,0-.63,1.924,1.664,1.664,0,0,0,1.8,1.8A2.044,2.044,0,0,0,241.077,124.009Z" transform="translate(-232.786 -114.283)"/><path class="d" d="M261.406,110.66h3.324l-2.589,12.979h-3.324Z" transform="translate(-246.328 -110.66)"/><path class="d" d="M282.483,117.781l-1.889,9.481h-3.148l.192-.892a3.907,3.907,0,0,1-2.747,1.049,3.953,3.953,0,0,1-1.968-.516,3.876,3.876,0,0,1-1.478-1.5,4.569,4.569,0,0,1-.56-2.309,5.674,5.674,0,0,1,.691-2.79,5.2,5.2,0,0,1,1.872-1.968,4.873,4.873,0,0,1,2.58-.717,3.194,3.194,0,0,1,2.9,1.294l.227-1.137Zm-4.81,6.228a2.827,2.827,0,0,0,.629-1.907,1.813,1.813,0,0,0-.481-1.329,1.765,1.765,0,0,0-1.32-.49,2.043,2.043,0,0,0-1.627.735,2.854,2.854,0,0,0-.63,1.924,1.664,1.664,0,0,0,1.8,1.8A2.046,2.046,0,0,0,277.672,124.009Z" transform="translate(-252.606 -114.283)"/><path class="d" d="M305.739,117.952l-6.07,9.9a10.135,10.135,0,0,1-1.443,1.881,4.239,4.239,0,0,1-1.461.962,5.413,5.413,0,0,1-3.3.061,3.345,3.345,0,0,1-1.181-.594l1.487-2.344a2.184,2.184,0,0,0,1.47.542,1.4,1.4,0,0,0,.77-.2,2.347,2.347,0,0,0,.629-.656l-2.151-9.551H297.8l1.189,5.825,3.5-5.825Z" transform="translate(-263.74 -114.453)"/></g></g></g></svg>