<svg xmlns="http://www.w3.org/2000/svg" width="193.609" height="44.16" viewBox="0 0 193.609 44.16"><defs><style>.a{fill:#03f87e;}.b{fill:#6804bf;}.c{fill:#ff5082;}.d{fill:#fff;}</style></defs><g transform="translate(-75.297 -89.461)"><g transform="translate(75.298 89.461)"><path class="a" d="M97.164,94.388a18.774,18.774,0,0,0-6.082-1.4,19.518,19.518,0,0,0-6.152.723,18.191,18.191,0,0,0-5.594,2.51,8.534,8.534,0,0,0-2.13,2.049,3.569,3.569,0,0,0-.692,2.566,4.977,4.977,0,0,0,1.275,2.444c.162.183.329.361.508.536l.273.262c.092.087.181.153.271.232s.175.154.272.223l.294.2a6.137,6.137,0,0,0,.616.367,14.835,14.835,0,0,0,5.771,1.4,37.986,37.986,0,0,0,6.147-.126q1.538-.145,3.071-.379c.51-.078,1.019-.16,1.526-.253l.757-.143.376-.076.186-.04.091-.02.046-.01.046-.009.073-.011c.049-.006.1-.01.147-.013l-.24.026a127.382,127.382,0,0,0,37.346-15.682,1.945,1.945,0,0,1,2.059,3.3c-.021.013-.04.025-.061.036l-.009.006A130.434,130.434,0,0,1,98.5,107.609l-.239.027a.834.834,0,0,0,.1,0l.049-.006.022,0-.051.009-.1.017-.2.035-.4.064-.8.117c-.53.075-1.062.139-1.594.2q-1.594.175-3.2.263a39.8,39.8,0,0,1-6.448-.131,22.118,22.118,0,0,1-3.219-.584,12.57,12.57,0,0,1-3.1-1.245,7.539,7.539,0,0,1-.72-.469l-.346-.258c-.114-.088-.218-.193-.327-.289s-.22-.2-.315-.294l-.283-.3c-.19-.2-.373-.413-.551-.631a6.2,6.2,0,0,1-1.448-3.146,4.27,4.27,0,0,1,.192-1.8,5.432,5.432,0,0,1,.819-1.544,9.507,9.507,0,0,1,2.475-2.208,18.984,18.984,0,0,1,5.955-2.394,19.889,19.889,0,0,1,6.348-.425,18.145,18.145,0,0,1,3.115.613A19.014,19.014,0,0,1,97.164,94.388Z" transform="translate(-75.298 -89.461)"/><path class="b" d="M90.058,131.044a30.7,30.7,0,0,1-7.645-3.782c-.933-3.295-2.268-8.094-3.414-12.239,2.616,1.824,6.391,2.626,10.281,2.886a.465.465,0,0,1,.435.427l.958,12.229A.468.468,0,0,1,90.058,131.044Z" transform="translate(-76.074 -94.825)"/><path class="a" d="M114.136,116.537l-2.791,16.532a.472.472,0,0,1-.469.39,68.733,68.733,0,0,1-12.592-1.1.466.466,0,0,1-.374-.449l-.28-13.248a.467.467,0,0,1,.454-.475,74.926,74.926,0,0,0,11.447-1.287c1.264-.261,2.607-.556,4.033-.9A.469.469,0,0,1,114.136,116.537Z" transform="translate(-79.984 -95.029)"/><path class="b" d="M127.226,130.627c-2.628.172-5.048.283-7.288.34a.466.466,0,0,1-.462-.58l4.484-18.1a.461.461,0,0,1,.323-.335,170.165,170.165,0,0,0,21.343-7.661" transform="translate(-84.565 -92.573)"/><g transform="translate(0.074 11.227)"><path class="a" d="M112.354,136.6c-1.07,0-2.145-.019-3.209-.057-1.3-.047-3.881-.173-6.653-.491-13.359-1.531-19.951-6.23-20.448-7.931-.2-.7-.512-1.779-.887-3.1L77.742,112.78c-1.283-4.633-2.332-8.452-2.332-8.452a.52.52,0,0,1,1-.276s1.048,3.818,2.331,8.45l3.413,12.239c.375,1.317.68,2.394.885,3.092.361,1.233,6.934,5.741,19.569,7.19,2.839.326,5.541.447,6.572.485,1.589.057,3.2.071,4.785.042a.52.52,0,1,1,.019,1.039C113.445,136.6,112.9,136.6,112.354,136.6Z" transform="translate(-75.391 -103.669)"/></g><path class="a" d="M89.965,105.814c-6.988,0-12.462-2.732-12.462-6.219s5.473-6.219,12.462-6.219,12.462,2.732,12.462,6.219S96.953,105.814,89.965,105.814Zm0-11.4c-6.191,0-11.422,2.372-11.422,5.18s5.231,5.18,11.422,5.18,11.422-2.372,11.422-5.18S96.156,94.415,89.965,94.415Z" transform="translate(-75.76 -90.283)"/><ellipse class="c" cx="9.111" cy="4.149" rx="9.111" ry="4.149" transform="translate(5.212 3.896)"/></g><g transform="translate(136.553 103.804)"><path class="d" d="M158.268,130.564a9.561,9.561,0,0,1-4.031-3.631,10.067,10.067,0,0,1-1.416-5.33,14.121,14.121,0,0,1,1.849-7.2,13,13,0,0,1,5.163-5,15.56,15.56,0,0,1,7.545-1.8,13.663,13.663,0,0,1,6.146,1.3,9.573,9.573,0,0,1,4.031,3.632,10.066,10.066,0,0,1,1.416,5.33,14.11,14.11,0,0,1-1.849,7.194,13.013,13.013,0,0,1-5.163,5,15.561,15.561,0,0,1-7.545,1.8A13.659,13.659,0,0,1,158.268,130.564Zm10.576-5.262a7.277,7.277,0,0,0,2.565-2.948,9.2,9.2,0,0,0,.9-4.081,5.043,5.043,0,0,0-1.449-3.78,5.544,5.544,0,0,0-4.047-1.416,6.854,6.854,0,0,0-3.864,1.1,7.272,7.272,0,0,0-2.565,2.948,9.2,9.2,0,0,0-.9,4.08,5.045,5.045,0,0,0,1.448,3.781,5.547,5.547,0,0,0,4.048,1.416A6.856,6.856,0,0,0,168.844,125.3Z" transform="translate(-152.821 -107.613)"/><path class="d" d="M192.359,113.433H185.2l1.065-5.23h20.886l-1.066,5.23h-7.129l-3.631,18.087h-6.6Z" transform="translate(-159.615 -107.737)"/><path class="d" d="M219.55,113.433h-7.161l1.065-5.23h20.885l-1.065,5.23h-7.129l-3.631,18.087h-6.6Z" transform="translate(-165.321 -107.737)"/><g transform="translate(63.185 2.408)"><path class="d" d="M249.653,118.473a6.393,6.393,0,0,1,2.434,2.464,7.474,7.474,0,0,1,.922,3.774,9.4,9.4,0,0,1-1.138,4.624,8.546,8.546,0,0,1-3.082,3.24,8.03,8.03,0,0,1-4.249,1.181q-3.4,0-4.782-2.132l-1.5,7.461h-5.473l4.234-21.2h5.186l-.317,1.469a6.429,6.429,0,0,1,4.523-1.728A6.52,6.52,0,0,1,249.653,118.473Zm-3.213,9.666A4.657,4.657,0,0,0,247.478,125a2.989,2.989,0,0,0-.793-2.189,2.906,2.906,0,0,0-2.174-.807,3.365,3.365,0,0,0-2.679,1.21,4.7,4.7,0,0,0-1.038,3.169,2.741,2.741,0,0,0,2.968,2.968A3.366,3.366,0,0,0,246.441,128.139Z" transform="translate(-232.786 -112.121)"/><path class="d" d="M263.081,110.66h5.474l-4.264,21.376h-5.474Z" transform="translate(-238.248 -110.66)"/><path class="d" d="M289.985,117.883,286.874,133.5h-5.185l.317-1.469a6.435,6.435,0,0,1-4.524,1.728,6.511,6.511,0,0,1-3.24-.849,6.384,6.384,0,0,1-2.434-2.464,7.525,7.525,0,0,1-.922-3.8,9.344,9.344,0,0,1,1.138-4.6,8.561,8.561,0,0,1,3.083-3.24,8.026,8.026,0,0,1,4.249-1.181q3.4,0,4.782,2.132l.374-1.873Zm-7.922,10.256A4.656,4.656,0,0,0,283.1,125a2.986,2.986,0,0,0-.792-2.189,2.907,2.907,0,0,0-2.174-.807,3.365,3.365,0,0,0-2.68,1.21,4.7,4.7,0,0,0-1.037,3.169,2.741,2.741,0,0,0,2.968,2.968A3.369,3.369,0,0,0,282.063,128.139Z" transform="translate(-240.781 -112.121)"/><path class="d" d="M314.441,117.952l-10,16.306a16.694,16.694,0,0,1-2.377,3.1,6.981,6.981,0,0,1-2.405,1.584,8.914,8.914,0,0,1-5.431.1,5.508,5.508,0,0,1-1.945-.979l2.449-3.861a3.6,3.6,0,0,0,2.42.893,2.312,2.312,0,0,0,1.267-.331,3.864,3.864,0,0,0,1.037-1.08l-3.543-15.73h5.445l1.959,9.593,5.762-9.593Z" transform="translate(-245.272 -112.19)"/></g></g></g></svg>