<svg xmlns="http://www.w3.org/2000/svg" xmlns:xlink="http://www.w3.org/1999/xlink" width="18.284" height="24.373" viewBox="0 0 18.284 24.373"><defs><style>.a{fill:none;}.b{fill:url(#a);}.c{fill:url(#b);}.d{fill:url(#c);}.e{fill:url(#d);}</style><linearGradient id="a" x1="21.885" y1="-26.804" x2="20.879" y2="-27.627" gradientUnits="objectBoundingBox"><stop offset="0" stop-color="#d6ffa1"/><stop offset="0.326" stop-color="#93e2a7"/><stop offset="1" stop-color="#00a3b5"/></linearGradient><linearGradient id="b" x1="33.926" y1="-45.05" x2="36.079" y2="-44.337" gradientUnits="objectBoundingBox"><stop offset="0" stop-color="#ff177b"/><stop offset="0.672" stop-color="#ffa975"/><stop offset="1" stop-color="#ffec73"/></linearGradient><linearGradient id="c" x1="27.315" y1="-13.129" x2="25.565" y2="-13.675" gradientUnits="objectBoundingBox"><stop offset="0" stop-color="#63ffd4"/><stop offset="0.485" stop-color="#329fb9"/><stop offset="0.835" stop-color="#1262a8"/><stop offset="1" stop-color="#064aa2"/></linearGradient><linearGradient id="d" x1="22.488" y1="-27.978" x2="21.62" y2="-26.481" gradientUnits="objectBoundingBox"><stop offset="0" stop-color="#ff4521"/><stop offset="0.341" stop-color="#d43e64"/><stop offset="0.793" stop-color="#9f36b9"/><stop offset="1" stop-color="#8a33db"/></linearGradient></defs><path class="a" d="M19.668,33.342l3.086-3.8h0l-3.085,3.8L9.818,21.217h0l9.851,12.127L9.8,45.491h0l9.866-12.146,3.1,3.816h0Z" transform="translate(-9.215 -21.171)"/><path class="b" d="M22.753,29.551l-12.025-8.14a.992.992,0,0,0-.91-.185l9.85,12.125Z" transform="translate(-9.215 -21.179)"/><path class="c" d="M22.839,35.667l4.1-2.779a1.153,1.153,0,0,0,0-2.05l-4.12-2.789-3.086,3.8Z" transform="translate(-9.285 -19.677)"/><path class="d" d="M9.814,21.217c-.366.141-.6.6-.6,1.286l0,21.706c0,.682.229,1.131.584,1.281l9.866-12.146Z" transform="translate(-9.211 -21.171)"/><path class="e" d="M9.8,43.315a.978.978,0,0,0,.927-.179l12.039-8.151-3.1-3.816Z" transform="translate(-9.215 -18.995)"/></svg>